<?xml version="1.0" encoding="UTF-8"?>
<!DOCTYPE svg PUBLIC "-//W3C//DTD SVG 1.1//EN" "http://www.w3.org/Graphics/SVG/1.1/DTD/svg11.dtd">
<svg xmlns="http://www.w3.org/2000/svg" version="1.1" width="482px" height="477px" style="shape-rendering:geometricPrecision; text-rendering:geometricPrecision; image-rendering:optimizeQuality; fill-rule:evenodd; clip-rule:evenodd" xmlns:xlink="http://www.w3.org/1999/xlink">
<g><path style="opacity:1" fill="#a61a27" d="M 239.5,-0.5 C 240.167,-0.5 240.833,-0.5 241.5,-0.5C 321.167,79.8333 401.167,159.833 481.5,239.5C 481.5,239.833 481.5,240.167 481.5,240.5C 470.368,251.131 459.368,261.965 448.5,273C 446.167,273.667 443.833,273.667 441.5,273C 451.622,263.845 461.455,254.345 471,244.5C 472.602,242.631 473.602,240.631 474,238.5C 396.32,160.653 318.486,82.9864 240.5,5.5C 162.014,83.4864 83.6803,161.653 5.5,240C 18,252.5 30.5,265 43,277.5C 43.3446,279.201 42.6779,280.534 41,281.5C 27.2985,267.631 13.4652,253.965 -0.5,240.5C -0.5,240.167 -0.5,239.833 -0.5,239.5C 79.2208,159.113 159.221,79.1126 239.5,-0.5 Z"/></g>
<g><path style="opacity:1" fill="#121211" d="M 421.5,273.5 C 419.265,273.795 417.265,273.461 415.5,272.5C 417.127,270.37 418.96,268.37 421,266.5C 421.667,265.833 421.667,265.167 421,264.5C 412.958,256.123 404.625,248.123 396,240.5C 387.209,248.29 378.709,256.457 370.5,265C 365.499,262.505 361.499,258.672 358.5,253.5C 362.764,245.972 367.764,238.972 373.5,232.5C 366.689,231.965 360.023,231.132 353.5,230C 358.681,224.652 364.015,219.485 369.5,214.5C 378.167,222.833 386.833,231.167 395.5,239.5C 404.319,231.181 412.986,222.681 421.5,214C 412.986,205.319 404.319,196.819 395.5,188.5C 386.848,196.652 378.348,204.986 370,213.5C 361.5,205 353,196.5 344.5,188C 352.667,179.833 360.833,171.667 369,163.5C 369.667,162.833 369.667,162.167 369,161.5C 360.667,153.167 352.333,144.833 344,136.5C 335.833,144.667 327.667,152.833 319.5,161C 318.833,161.667 318.167,161.667 317.5,161C 309.167,152.667 300.833,144.333 292.5,136C 300.667,127.833 308.833,119.667 317,111.5C 317.667,110.833 317.667,110.167 317,109.5C 308.667,101.167 300.333,92.8333 292,84.5C 283.652,93.0145 275.152,101.348 266.5,109.5C 257.681,101.181 249.014,92.6811 240.5,84C 249.014,75.6524 257.348,67.1524 265.5,58.5C 257.181,49.6809 248.681,41.0142 240,32.5C 231.319,41.0142 222.819,49.6809 214.5,58.5C 222.486,66.9858 230.652,75.3191 239,83.5C 239.667,84.1667 239.667,84.8333 239,85.5C 230.986,93.6812 222.819,101.681 214.5,109.5C 205.833,101.167 197.167,92.8333 188.5,84.5C 179.681,92.8189 171.014,101.319 162.5,110C 171.014,118.681 179.681,127.181 188.5,135.5C 197.167,127.167 205.833,118.833 214.5,110.5C 223.167,118.833 231.833,127.167 240.5,135.5C 249.152,127.348 257.652,119.014 266,110.5C 274.333,118.833 282.667,127.167 291,135.5C 291.667,136.167 291.667,136.833 291,137.5C 282.986,145.681 274.819,153.681 266.5,161.5C 257.833,153.167 249.167,144.833 240.5,136.5C 231.833,144.833 223.167,153.167 214.5,161.5C 205.833,153.167 197.167,144.833 188.5,136.5C 179.833,144.833 171.167,153.167 162.5,161.5C 154.014,153.514 145.681,145.348 137.5,137C 136.833,136.333 136.167,136.333 135.5,137C 127.123,145.042 119.123,153.375 111.5,162C 119.457,170.958 127.79,179.625 136.5,188C 127.79,196.375 119.457,205.042 111.5,214C 119.326,222.659 127.326,231.159 135.5,239.5C 135.5,239.833 135.5,240.167 135.5,240.5C 127.536,248.965 119.369,257.298 111,265.5C 102.667,257.167 94.3333,248.833 86,240.5C 85.3333,239.833 85.3333,239.167 86,238.5C 94.1667,230.333 102.333,222.167 110.5,214C 101.986,205.319 93.3191,196.819 84.5,188.5C 75.6381,196.528 67.3048,205.028 59.5,214C 67.4567,222.958 75.79,231.625 84.5,240C 77.5,247 70.5,254 63.5,261C 57.5021,260.013 51.8354,257.847 46.5,254.5C 46.1667,254.833 45.8333,255.167 45.5,255.5C 46.7521,257.735 47.2521,260.069 47,262.5C 39.5,255 32,247.5 24.5,240C 96.3469,167.986 168.347,96.153 240.5,24.5C 312.594,96.4702 384.261,168.303 455.5,240C 444.298,251.369 432.965,262.535 421.5,273.5 Z"/></g>
<g><path style="opacity:1" fill="#a31022" d="M 308.5,476.5 C 261.833,476.5 215.167,476.5 168.5,476.5C 161.043,471.335 159.543,464.668 164,456.5C 165.87,454.781 168.037,453.781 170.5,453.5C 166.359,439.782 171.359,431.782 185.5,429.5C 193.452,418.258 199.286,405.925 203,392.5C 211.27,359.008 215.77,325.008 216.5,290.5C 210.029,291.655 204.529,289.989 200,285.5C 198.08,277.836 200.913,273.003 208.5,271C 204.54,264.826 205.54,259.492 211.5,255C 205.694,239.617 202.194,223.783 201,207.5C 206.513,199.651 214.013,194.651 223.5,192.5C 224.852,187.814 227.852,184.814 232.5,183.5C 233.331,176.189 233.831,168.856 234,161.5C 236.729,158.136 239.729,157.803 243,160.5C 243.169,168.188 243.669,175.855 244.5,183.5C 249.838,184.171 252.838,187.171 253.5,192.5C 262.711,194.569 270.211,199.236 276,206.5C 276.667,210.167 276.667,213.833 276,217.5C 273.549,230.019 270.382,242.352 266.5,254.5C 269.028,257.373 270.694,260.706 271.5,264.5C 271.444,267.111 270.444,269.278 268.5,271C 278.084,273.823 280.418,279.489 275.5,288C 271.116,290.208 266.449,291.041 261.5,290.5C 261.572,325.746 266.072,360.412 275,394.5C 278.365,407.624 284.199,419.457 292.5,430C 305.192,432.227 309.525,439.393 305.5,451.5C 318.863,458.634 319.863,466.967 308.5,476.5 Z"/></g>
<g><path style="opacity:1" fill="#141313" d="M 161.5,162.5 C 170.76,170.422 179.76,178.755 188.5,187.5C 197.167,179.167 205.833,170.833 214.5,162.5C 218.151,165.651 221.651,168.984 225,172.5C 225.667,174.5 225.667,176.5 225,178.5C 221.823,180.511 219.323,183.178 217.5,186.5C 210.381,188.89 204.047,192.557 198.5,197.5C 195.349,194.85 192.349,192.016 189.5,189C 188.833,188.333 188.167,188.333 187.5,189C 179.319,197.348 170.986,205.514 162.5,213.5C 153.638,205.472 145.305,196.972 137.5,188C 145.326,179.341 153.326,170.841 161.5,162.5 Z"/></g>
<g><path style="opacity:1" fill="#161616" d="M 265.5,162.5 C 274.412,169.907 282.912,177.907 291,186.5C 291.667,187.5 291.667,188.5 291,189.5C 287.651,193.016 284.151,196.349 280.5,199.5C 275.015,193.583 268.348,189.416 260.5,187C 258.021,183.353 255.021,180.187 251.5,177.5C 256.188,172.48 260.855,167.48 265.5,162.5 Z"/></g>
<g><path style="opacity:1" fill="#0f0e0e" d="M 317.5,162.5 C 326.298,170.798 334.965,179.298 343.5,188C 337.833,193.667 332.167,199.333 326.5,205C 322.205,205.898 318.372,207.731 315,210.5C 307.5,203 300,195.5 292.5,188C 301.036,179.632 309.369,171.132 317.5,162.5 Z"/></g>
<g><path style="opacity:1" fill="#f9f2f3" d="M 226.5,249.5 C 226.5,251.167 226.5,252.833 226.5,254.5C 224.167,254.5 221.833,254.5 219.5,254.5C 216.376,241.626 212.542,228.959 208,216.5C 206.348,211.154 207.848,206.987 212.5,204C 219.034,200.153 226.034,198.153 233.5,198C 227.171,201.156 222.838,205.989 220.5,212.5C 222.612,224.838 224.612,237.172 226.5,249.5 Z"/></g>
<g><path style="opacity:1" fill="#0f0e0e" d="M 323.5,212.5 C 335.712,211.193 339.878,216.193 336,227.5C 342.508,228.673 347.342,232.173 350.5,238C 353.5,238.333 356.5,238.667 359.5,239C 351.977,248.214 347.311,258.714 345.5,270.5C 352.841,271.848 354.841,275.848 351.5,282.5C 358.411,285.494 360.078,290.327 356.5,297C 353.312,298.316 349.978,298.816 346.5,298.5C 346.247,326.971 349.747,354.971 357,382.5C 359.849,393.365 364.683,403.198 371.5,412C 381.038,413.575 384.705,419.075 382.5,428.5C 384.489,430.598 386.655,432.598 389,434.5C 391.682,440.635 390.182,445.469 384.5,449C 361.833,449.667 339.167,449.667 316.5,449C 314.436,447.982 314.102,446.649 315.5,445C 314.514,433.017 308.18,425.684 296.5,423C 292.997,418.332 289.997,413.332 287.5,408C 294.682,396.46 299.516,383.96 302,370.5C 306.88,346.745 309.38,322.745 309.5,298.5C 300.209,300.298 296.376,296.632 298,287.5C 299.811,285.457 301.978,283.957 304.5,283C 300.997,276.172 302.997,272.006 310.5,270.5C 308.135,258.939 303.468,248.439 296.5,239C 299.5,238.667 302.5,238.333 305.5,238C 309.017,232.241 314.017,228.407 320.5,226.5C 317.255,220.864 318.255,216.197 323.5,212.5 Z"/></g>
<g><path style="opacity:1" fill="#1a1919" d="M 135.5,240.5 C 135.5,240.167 135.5,239.833 135.5,239.5C 144.76,231.578 153.76,223.245 162.5,214.5C 170.986,222.486 179.319,230.652 187.5,239C 188.167,239.667 188.833,239.667 189.5,239C 191.683,236.65 194.016,234.483 196.5,232.5C 198.82,239.45 200.653,246.45 202,253.5C 197.652,248.985 193.152,244.651 188.5,240.5C 183.5,245.167 178.5,249.833 173.5,254.5C 170.275,253.168 169.275,251.001 170.5,248C 166.899,234.032 158.565,230.032 145.5,236C 143.3,238.234 141.467,240.734 140,243.5C 138.871,241.859 137.371,240.859 135.5,240.5 Z"/></g>
<g><path style="opacity:1" fill="#5b5958" d="M 308.5,224.5 C 309.122,223.373 309.955,222.373 311,221.5C 311.519,223.489 310.686,224.489 308.5,224.5 Z"/></g>
<g><path style="opacity:1" fill="#7d7b79" d="M 308.5,224.5 C 307.833,225.167 307.833,225.167 308.5,224.5 Z"/></g>
<g><path style="opacity:1" fill="#1a1919" d="M 281.5,229.5 C 283.369,233.494 286.036,237.494 289.5,241.5C 285.5,246.167 281.167,250.5 276.5,254.5C 275.692,254.192 275.025,253.692 274.5,253C 277.223,245.275 279.556,237.441 281.5,229.5 Z"/></g>
<g><path style="opacity:1" fill="#101010" d="M 152.5,239.5 C 161.932,239.882 164.932,244.382 161.5,253C 180.525,270.643 184.192,291.143 172.5,314.5C 180.372,316.508 182.372,321.008 178.5,328C 184.653,329.465 186.82,333.298 185,339.5C 184.167,340.333 183.333,341.167 182.5,342C 179.5,342.333 176.5,342.667 173.5,343C 173.452,365.299 179.118,386.133 190.5,405.5C 188.318,412.034 184.985,417.868 180.5,423C 166.897,426.453 160.231,435.287 160.5,449.5C 141.544,450.654 122.544,450.82 103.5,450C 96.6918,448.527 93.8585,444.36 95,437.5C 96.587,434.244 99.087,432.077 102.5,431C 98.9682,420.827 102.635,414.827 113.5,413C 124.227,400.041 131.06,385.208 134,368.5C 135.908,360.241 136.908,351.907 137,343.5C 133.924,342.712 130.758,342.212 127.5,342C 124.114,338.627 123.614,334.794 126,330.5C 127.648,329.283 129.481,328.45 131.5,328C 127.628,321.008 129.628,316.508 137.5,314.5C 125.903,291.158 129.57,270.658 148.5,253C 145.338,247.159 146.671,242.659 152.5,239.5 Z"/></g>
<g><path style="opacity:1" fill="#b1b0b0" d="M 316.5,247.5 C 315.566,246.432 315.232,245.099 315.5,243.5C 312.615,243.194 309.948,243.527 307.5,244.5C 306.957,244.44 306.624,244.107 306.5,243.5C 309.768,242.513 313.102,242.18 316.5,242.5C 316.5,244.167 316.5,245.833 316.5,247.5 Z"/></g>
<g><path style="opacity:1" fill="#ececec" d="M 316.5,247.5 C 316.666,254.175 316.5,260.842 316,267.5C 314.065,259.53 311.231,251.863 307.5,244.5C 309.948,243.527 312.615,243.194 315.5,243.5C 315.232,245.099 315.566,246.432 316.5,247.5 Z"/></g>
<g><path style="opacity:1" fill="#be6775" d="M 226.5,249.5 C 227.461,251.265 227.795,253.265 227.5,255.5C 224.615,255.806 221.948,255.473 219.5,254.5C 221.833,254.5 224.167,254.5 226.5,254.5C 226.5,252.833 226.5,251.167 226.5,249.5 Z"/></g>
<g><path style="opacity:1" fill="#ebebeb" d="M 140.5,302.5 C 140.737,303.791 140.404,304.791 139.5,305.5C 133.69,292.238 134.19,279.238 141,266.5C 148.411,256.967 156.578,256.134 165.5,264C 156.13,262.439 148.964,265.606 144,273.5C 139.463,282.621 138.296,292.287 140.5,302.5 Z"/></g>
<g><path style="opacity:1" fill="#191818" d="M 124.5,282.5 C 123.833,285.167 123.167,287.833 122.5,290.5C 118.355,282.735 112.688,276.235 105.5,271C 107.08,268.705 109.08,267.372 111.5,267C 115.667,271.167 119.833,275.333 124,279.5C 124.483,280.448 124.649,281.448 124.5,282.5 Z"/></g>
<g><path style="opacity:1" fill="#181717" d="M 368.5,266.5 C 371.899,268.388 374.899,270.888 377.5,274C 375.527,274.495 373.527,274.662 371.5,274.5C 371.168,284.855 371.501,295.188 372.5,305.5C 375.805,307.426 376.471,310.093 374.5,313.5C 374.486,315.593 375.152,317.426 376.5,319C 369.667,325.833 362.833,332.667 356,339.5C 355.333,336.833 355.333,334.167 356,331.5C 360.682,326.985 365.182,322.319 369.5,317.5C 365.682,313.182 361.682,309.015 357.5,305C 366.659,297.887 367.826,289.72 361,280.5C 360.333,278.5 360.333,276.5 361,274.5C 363.705,271.964 366.205,269.297 368.5,266.5 Z"/></g>
<g><path style="opacity:1" fill="#a31122" d="M 56.5,266.5 C 59.913,268.289 63.413,269.956 67,271.5C 77.4978,268.311 87.6644,269.144 97.5,274C 119.049,287.982 125.882,307.149 118,331.5C 117.901,340.037 115.235,347.703 110,354.5C 102.345,361.813 95.845,369.98 90.5,379C 97.7213,383.221 103.221,389.054 107,396.5C 114.359,398.675 115.193,402.175 109.5,407C 98.42,409.76 92.92,416.927 93,428.5C 92.1667,429.333 91.3333,430.167 90.5,431C 68.8333,431.667 47.1667,431.667 25.5,431C 20.5736,428.647 18.7402,424.814 20,419.5C 21.6721,416.663 23.8387,414.33 26.5,412.5C 23.8236,404.52 26.4902,399.186 34.5,396.5C 36.7656,391.103 40.0989,386.603 44.5,383C 28.8372,365.298 30.1705,348.965 48.5,334C 55.5569,330.113 61.5569,324.947 66.5,318.5C 63.1488,316.403 59.6488,314.403 56,312.5C 49.4913,315.563 43.8247,319.563 39,324.5C 36.0337,324.148 33.5337,322.981 31.5,321C 34.4366,317.862 37.77,315.195 41.5,313C 40.4071,311.635 39.0738,311.301 37.5,312C 29.8681,320.423 25.5348,318.923 24.5,307.5C 24.7863,303.855 26.453,301.022 29.5,299C 34.1667,296 38.8333,293 43.5,290C 45.6575,288.019 47.3241,285.686 48.5,283C 52.3037,280.695 55.9704,278.195 59.5,275.5C 58.2946,272.55 57.2946,269.55 56.5,266.5 Z"/></g>
<g><path style="opacity:1" fill="#7e7c7b" d="M 415.5,272.5 C 417.265,273.461 419.265,273.795 421.5,273.5C 419.307,274.797 416.973,274.797 414.5,273.5C 414.624,272.893 414.957,272.56 415.5,272.5 Z"/></g>
<g><path style="opacity:1" fill="#a31122" d="M 377.5,280.5 C 386.5,280.5 395.5,280.5 404.5,280.5C 404.5,283.5 404.5,286.5 404.5,289.5C 408.833,289.5 413.167,289.5 417.5,289.5C 417.5,286.5 417.5,283.5 417.5,280.5C 426.5,280.5 435.5,280.5 444.5,280.5C 444.831,287.863 444.497,295.197 443.5,302.5C 440.991,303.921 438.657,305.588 436.5,307.5C 441.777,309.554 442.777,312.888 439.5,317.5C 438.264,318.246 436.93,318.579 435.5,318.5C 438.5,345.171 441.5,371.838 444.5,398.5C 450.832,398.161 454.499,401.161 455.5,407.5C 452.774,411.398 453.441,413.898 457.5,415C 462.952,420.4 462.619,425.4 456.5,430C 435.833,430.667 415.167,430.667 394.5,430C 391.119,426.813 389.452,422.813 389.5,418C 387.346,411.846 383.18,407.68 377,405.5C 376.493,404.004 376.993,402.837 378.5,402C 376.512,401.82 374.512,401.986 372.5,402.5C 372.33,401.178 372.663,400.011 373.5,399C 375.101,398.727 376.601,398.227 378,397.5C 381.245,371.204 384.079,344.871 386.5,318.5C 383.113,318.284 381.113,316.45 380.5,313C 381.585,310.25 383.585,308.583 386.5,308C 383.667,305.833 380.833,303.667 378,301.5C 377.5,294.508 377.334,287.508 377.5,280.5 Z"/></g>
<g><path style="opacity:1" fill="#f9f4f4" d="M 381.5,283.5 C 383.5,283.5 385.5,283.5 387.5,283.5C 387.179,289.026 387.512,294.36 388.5,299.5C 389.218,301.137 389.384,302.803 389,304.5C 386.667,302.833 384.333,301.167 382,299.5C 381.501,294.177 381.334,288.844 381.5,283.5 Z"/></g>
<g><path style="opacity:1" fill="#f0dddf" d="M 61.5,278.5 C 62.2389,278.369 62.9056,278.536 63.5,279C 59.6667,282.167 55.8333,285.333 52,288.5C 51.088,290.659 50.2546,292.825 49.5,295C 41.7498,299.203 34.7498,304.369 28.5,310.5C 27.2026,307.812 27.5359,305.312 29.5,303C 35.1667,299.5 40.8333,296 46.5,292.5C 47.6361,289.063 49.6361,286.229 52.5,284C 55.6717,282.303 58.6717,280.47 61.5,278.5 Z"/></g>
<g><path style="opacity:1" fill="#c17080" d="M 381.5,283.5 C 383.607,282.532 385.941,282.198 388.5,282.5C 388.5,288.167 388.5,293.833 388.5,299.5C 387.512,294.36 387.179,289.026 387.5,283.5C 385.5,283.5 383.5,283.5 381.5,283.5 Z"/></g>
<g><path style="opacity:1" fill="#191818" d="M 285.5,285.5 C 289.006,287.144 290.506,289.811 290,293.5C 283.333,300.167 276.667,306.833 270,313.5C 269.805,308.582 269.305,303.749 268.5,299C 276.67,297.664 282.337,293.164 285.5,285.5 Z"/></g>
<g><path style="opacity:1" fill="#242322" d="M 192.5,287.5 C 195.875,293.859 201.208,297.193 208.5,297.5C 208.79,301.936 208.29,306.27 207,310.5C 201.167,304.667 195.333,298.833 189.5,293C 188.004,292.493 186.837,292.993 186,294.5C 184.764,290.197 185.598,289.197 188.5,291.5C 190.188,290.479 191.521,289.145 192.5,287.5 Z"/></g>
<g><path style="opacity:1" fill="#5c5a59" d="M 124.5,282.5 C 124.666,286.514 124.499,290.514 124,294.5C 123.209,293.255 122.709,291.922 122.5,290.5C 123.167,287.833 123.833,285.167 124.5,282.5 Z"/></g>
<g><path style="opacity:1" fill="#f9f4f5" d="M 223.5,292.5 C 225.167,292.5 226.833,292.5 228.5,292.5C 228.5,299.833 228.5,307.167 228.5,314.5C 227.601,353.924 223.268,392.924 215.5,431.5C 208.978,431.823 202.645,431.49 196.5,430.5C 204.316,413.917 209.982,396.584 213.5,378.5C 215.118,375.829 215.785,372.829 215.5,369.5C 219.47,343.978 222.137,318.311 223.5,292.5 Z"/></g>
<g><path style="opacity:1" fill="#d7a4aa" d="M 223.5,292.5 C 225.265,291.539 227.265,291.205 229.5,291.5C 229.825,299.352 229.492,307.018 228.5,314.5C 228.5,307.167 228.5,299.833 228.5,292.5C 226.833,292.5 225.167,292.5 223.5,292.5 Z"/></g>
<g><path style="opacity:1" fill="#eeeded" d="M 314.5,299.5 C 315.5,299.5 316.5,299.5 317.5,299.5C 317.5,308.167 317.5,316.833 317.5,325.5C 317.8,350.969 314.634,375.969 308,400.5C 306.572,404.307 305.072,407.974 303.5,411.5C 299.988,412.055 296.988,411.388 294.5,409.5C 301.956,394.024 306.789,377.691 309,360.5C 311.551,340.221 313.384,319.888 314.5,299.5 Z"/></g>
<g><path style="opacity:1" fill="#898786" d="M 140.5,302.5 C 141.82,305.28 142.32,308.28 142,311.5C 140.681,309.713 139.848,307.713 139.5,305.5C 140.404,304.791 140.737,303.791 140.5,302.5 Z"/></g>
<g><path style="opacity:1" fill="#bcbbbb" d="M 314.5,299.5 C 315.568,298.566 316.901,298.232 318.5,298.5C 318.827,307.682 318.493,316.682 317.5,325.5C 317.5,316.833 317.5,308.167 317.5,299.5C 316.5,299.5 315.5,299.5 314.5,299.5 Z"/></g>
<g><path style="opacity:1" fill="#f7efef" d="M 391.5,320.5 C 392.5,320.5 393.5,320.5 394.5,320.5C 394.5,322.5 394.5,324.5 394.5,326.5C 393.1,350.496 391.767,374.496 390.5,398.5C 388.167,398.5 385.833,398.5 383.5,398.5C 385.389,372.269 388.056,346.269 391.5,320.5 Z"/></g>
<g><path style="opacity:1" fill="#daa8ac" d="M 391.5,320.5 C 392.568,319.566 393.901,319.232 395.5,319.5C 395.802,322.059 395.468,324.393 394.5,326.5C 394.5,324.5 394.5,322.5 394.5,320.5C 393.5,320.5 392.5,320.5 391.5,320.5 Z"/></g>
<g><path style="opacity:1" fill="#181717" d="M 270.5,322.5 C 277.812,329.146 284.812,336.146 291.5,343.5C 286.5,349.167 281.167,354.5 275.5,359.5C 273.097,347.274 271.43,334.941 270.5,322.5 Z"/></g>
<g><path style="opacity:1" fill="#f5eaeb" d="M 69.5,320.5 C 70.2389,320.369 70.9056,320.536 71.5,321C 66.4017,329.599 59.735,336.766 51.5,342.5C 42.1139,353.907 42.2805,365.241 52,376.5C 55.1667,379 58.3333,381.5 61.5,384C 55.9713,386.695 51.9713,390.862 49.5,396.5C 46.9135,397.48 44.2469,397.813 41.5,397.5C 43.4378,391.716 47.1045,387.216 52.5,384C 40.7882,375.103 36.6215,363.603 40,349.5C 41.776,346.059 43.9426,342.892 46.5,340C 54.9451,334.386 62.6117,327.886 69.5,320.5 Z"/></g>
<g><path style="opacity:1" fill="#151414" d="M 205.5,326.5 C 205.972,336.447 204.972,346.447 202.5,356.5C 198.015,352.515 193.682,348.349 189.5,344C 194.671,337.997 200.004,332.163 205.5,326.5 Z"/></g>
<g><path style="opacity:1" fill="#262524" d="M 299.5,335.5 C 300.124,335.917 300.457,336.584 300.5,337.5C 299.99,341.592 299.157,345.592 298,349.5C 295.982,347.65 294.149,345.65 292.5,343.5C 294.856,340.814 297.189,338.147 299.5,335.5 Z"/></g>
<g><path style="opacity:1" fill="#a71b29" d="M 377.5,337.5 C 378.559,339.726 378.392,342.059 377,344.5C 371.333,350.167 365.667,355.833 360,361.5C 358.813,359.956 358.48,358.289 359,356.5C 365.369,350.298 371.536,343.965 377.5,337.5 Z"/></g>
<g><path style="opacity:1" fill="#e9e8e8" d="M 141.5,342.5 C 142.5,342.5 143.5,342.5 144.5,342.5C 144.534,361.761 142.367,380.761 138,399.5C 137.245,404.535 135.579,409.202 133,413.5C 128.882,414.798 124.715,414.798 120.5,413.5C 127.647,403.493 132.814,392.493 136,380.5C 138.816,367.967 140.65,355.301 141.5,342.5 Z"/></g>
<g><path style="opacity:1" fill="#706e6e" d="M 179.5,349.5 C 182.001,349.511 182.168,350.178 180,351.5C 179.536,350.906 179.369,350.239 179.5,349.5 Z"/></g>
<g><path style="opacity:1" fill="#a71b28" d="M 118.5,353.5 C 121.964,356.462 125.297,359.629 128.5,363C 127.773,364.399 127.273,365.899 127,367.5C 123.667,364.167 120.333,360.833 117,357.5C 116.7,355.934 117.2,354.601 118.5,353.5 Z"/></g>
<g><path style="opacity:1" fill="#d6a0a6" d="M 215.5,369.5 C 215.785,372.829 215.118,375.829 213.5,378.5C 213.676,375.273 214.343,372.273 215.5,369.5 Z"/></g>
<g><path style="opacity:1" fill="#252424" d="M 280.5,384.5 C 283.297,386.795 285.964,389.295 288.5,392C 287.206,394.087 286.039,396.254 285,398.5C 282.605,394.148 281.105,389.481 280.5,384.5 Z"/></g>
<g><path style="opacity:1" fill="#2d2b2b" d="M 194.5,388.5 C 195.239,388.369 195.906,388.536 196.5,389C 195.523,391.602 194.356,394.102 193,396.5C 190.881,393.354 191.381,390.687 194.5,388.5 Z"/></g>
<g><path style="opacity:1" fill="#f3e5e5" d="M 36.5,400.5 C 37.5593,402.07 37.0593,403.403 35,404.5C 33.7728,408.591 34.6061,412.091 37.5,415C 30.581,413.903 28.7477,410.069 32,403.5C 33.4087,402.219 34.9087,401.219 36.5,400.5 Z"/></g>
<g><path style="opacity:1" fill="#a8a7a7" d="M 294.5,409.5 C 296.988,411.388 299.988,412.055 303.5,411.5C 299.981,412.808 296.315,412.808 292.5,411.5C 292.855,410.478 293.522,409.811 294.5,409.5 Z"/></g>
<g><path style="opacity:1" fill="#dbdada" d="M 110.5,417.5 C 115.272,417.367 115.438,418.7 111,421.5C 109.956,426.034 111.123,429.867 114.5,433C 107.708,432.296 105.208,428.463 107,421.5C 108.376,420.295 109.542,418.962 110.5,417.5 Z"/></g>
<g><path style="opacity:1" fill="#c77176" d="M 196.5,430.5 C 202.645,431.49 208.978,431.823 215.5,431.5C 208.989,432.818 202.322,432.818 195.5,431.5C 195.624,430.893 195.957,430.56 196.5,430.5 Z"/></g>
<g><path style="opacity:1" fill="#f5e9ea" d="M 183.5,453.5 C 183.158,454.338 182.492,454.672 181.5,454.5C 174.909,452.134 172.743,447.468 175,440.5C 177.002,437.113 179.835,435.613 183.5,436C 178.193,441.949 178.193,447.783 183.5,453.5 Z"/></g>
<g><path style="opacity:1" fill="#c27586" d="M 183.5,453.5 C 184.885,454.302 184.718,454.969 183,455.5C 182.235,455.43 181.735,455.097 181.5,454.5C 182.492,454.672 183.158,454.338 183.5,453.5 Z"/></g>
</svg>
